<mxfile host="app.diagrams.net" modified="2022-04-08T02:56:59.410Z" agent="5.0 (Windows NT 10.0; Win64; x64) AppleWebKit/537.36 (KHTML, like Gecko) Chrome/100.0.4896.75 Safari/537.36" etag="eMWfjC_FPEqW5w9J6Nx6" version="17.4.0" type="github" pages="4">
  <diagram id="D26ZpXYTQ0QOP5QL7lTh" name="第 1 页">
    <mxGraphModel dx="1038" dy="539" grid="1" gridSize="10" guides="1" tooltips="1" connect="1" arrows="1" fold="1" page="1" pageScale="1" pageWidth="827" pageHeight="1169" math="0" shadow="0">
      <root>
        <mxCell id="0" />
        <mxCell id="1" parent="0" />
        <mxCell id="O7V4I7bS28s8WNEtMoP5-1" value="" style="rounded=0;whiteSpace=wrap;html=1;" parent="1" vertex="1">
          <mxGeometry width="470" height="170" as="geometry" />
        </mxCell>
        <mxCell id="O7V4I7bS28s8WNEtMoP5-2" value="" style="rounded=0;whiteSpace=wrap;html=1;" parent="1" vertex="1">
          <mxGeometry y="200" width="890" height="170" as="geometry" />
        </mxCell>
        <mxCell id="O7V4I7bS28s8WNEtMoP5-4" value="" style="rounded=0;whiteSpace=wrap;html=1;" parent="1" vertex="1">
          <mxGeometry x="520" width="370" height="170" as="geometry" />
        </mxCell>
        <mxCell id="O7V4I7bS28s8WNEtMoP5-5" value="" style="rounded=0;whiteSpace=wrap;html=1;" parent="1" vertex="1">
          <mxGeometry y="420" width="890" height="160" as="geometry" />
        </mxCell>
        <mxCell id="O7V4I7bS28s8WNEtMoP5-6" value="&lt;span style=&quot;font-size: 15px&quot;&gt;前端服务器集群&lt;/span&gt;" style="text;html=1;strokeColor=none;fillColor=none;align=center;verticalAlign=middle;whiteSpace=wrap;rounded=0;" parent="1" vertex="1">
          <mxGeometry width="120" height="30" as="geometry" />
        </mxCell>
        <mxCell id="O7V4I7bS28s8WNEtMoP5-7" value="&lt;span style=&quot;font-size: 15px&quot;&gt;后端服务器集群&lt;/span&gt;" style="text;html=1;strokeColor=none;fillColor=none;align=center;verticalAlign=middle;whiteSpace=wrap;rounded=0;" parent="1" vertex="1">
          <mxGeometry x="520" width="120" height="30" as="geometry" />
        </mxCell>
        <mxCell id="O7V4I7bS28s8WNEtMoP5-8" value="&lt;span style=&quot;font-size: 15px&quot;&gt;离线计算服务器集群&lt;/span&gt;" style="text;html=1;strokeColor=none;fillColor=none;align=center;verticalAlign=middle;whiteSpace=wrap;rounded=0;" parent="1" vertex="1">
          <mxGeometry y="200" width="160" height="30" as="geometry" />
        </mxCell>
        <mxCell id="O7V4I7bS28s8WNEtMoP5-10" value="&lt;span style=&quot;font-size: 15px&quot;&gt;实时计算服务器集群&lt;/span&gt;" style="text;html=1;strokeColor=none;fillColor=none;align=center;verticalAlign=middle;whiteSpace=wrap;rounded=0;" parent="1" vertex="1">
          <mxGeometry y="420" width="160" height="30" as="geometry" />
        </mxCell>
        <mxCell id="O7V4I7bS28s8WNEtMoP5-13" style="edgeStyle=orthogonalEdgeStyle;rounded=0;orthogonalLoop=1;jettySize=auto;html=1;exitX=1;exitY=0.5;exitDx=0;exitDy=0;fontSize=15;dashed=1;" parent="1" source="O7V4I7bS28s8WNEtMoP5-11" target="O7V4I7bS28s8WNEtMoP5-12" edge="1">
          <mxGeometry relative="1" as="geometry" />
        </mxCell>
        <mxCell id="O7V4I7bS28s8WNEtMoP5-11" value="数据采集" style="rounded=1;whiteSpace=wrap;html=1;fontSize=15;" parent="1" vertex="1">
          <mxGeometry x="160" y="30" width="120" height="60" as="geometry" />
        </mxCell>
        <mxCell id="O7V4I7bS28s8WNEtMoP5-15" style="edgeStyle=orthogonalEdgeStyle;rounded=0;orthogonalLoop=1;jettySize=auto;html=1;exitX=0.5;exitY=1;exitDx=0;exitDy=0;dashed=1;fontSize=15;startArrow=classic;startFill=0;" parent="1" source="O7V4I7bS28s8WNEtMoP5-12" target="O7V4I7bS28s8WNEtMoP5-14" edge="1">
          <mxGeometry relative="1" as="geometry">
            <Array as="points">
              <mxPoint x="800" y="320" />
              <mxPoint x="750" y="320" />
            </Array>
          </mxGeometry>
        </mxCell>
        <mxCell id="O7V4I7bS28s8WNEtMoP5-18" style="edgeStyle=orthogonalEdgeStyle;rounded=0;orthogonalLoop=1;jettySize=auto;html=1;exitX=0.25;exitY=1;exitDx=0;exitDy=0;entryX=1;entryY=0.25;entryDx=0;entryDy=0;dashed=1;fontSize=15;startArrow=classic;startFill=0;" parent="1" source="O7V4I7bS28s8WNEtMoP5-12" target="O7V4I7bS28s8WNEtMoP5-16" edge="1">
          <mxGeometry relative="1" as="geometry" />
        </mxCell>
        <mxCell id="O7V4I7bS28s8WNEtMoP5-30" style="edgeStyle=none;rounded=0;orthogonalLoop=1;jettySize=auto;html=1;exitX=0;exitY=1;exitDx=0;exitDy=0;entryX=1;entryY=0.5;entryDx=0;entryDy=0;shadow=0;dashed=1;fontSize=15;startArrow=none;startFill=0;fillColor=#f8cecc;strokeColor=#b85450;" parent="1" source="O7V4I7bS28s8WNEtMoP5-12" target="O7V4I7bS28s8WNEtMoP5-29" edge="1">
          <mxGeometry relative="1" as="geometry" />
        </mxCell>
        <mxCell id="O7V4I7bS28s8WNEtMoP5-12" value="数据处理" style="rounded=1;whiteSpace=wrap;html=1;fontSize=15;" parent="1" vertex="1">
          <mxGeometry x="740" y="30" width="120" height="60" as="geometry" />
        </mxCell>
        <mxCell id="O7V4I7bS28s8WNEtMoP5-19" style="edgeStyle=orthogonalEdgeStyle;rounded=0;orthogonalLoop=1;jettySize=auto;html=1;exitX=0.25;exitY=0;exitDx=0;exitDy=0;entryX=1;entryY=0.75;entryDx=0;entryDy=0;dashed=1;fontSize=15;" parent="1" source="O7V4I7bS28s8WNEtMoP5-14" target="O7V4I7bS28s8WNEtMoP5-16" edge="1">
          <mxGeometry relative="1" as="geometry" />
        </mxCell>
        <mxCell id="O7V4I7bS28s8WNEtMoP5-23" style="edgeStyle=orthogonalEdgeStyle;rounded=0;orthogonalLoop=1;jettySize=auto;html=1;exitX=0;exitY=0.5;exitDx=0;exitDy=0;entryX=1;entryY=0.5;entryDx=0;entryDy=0;dashed=1;fontSize=15;" parent="1" source="O7V4I7bS28s8WNEtMoP5-14" target="O7V4I7bS28s8WNEtMoP5-20" edge="1">
          <mxGeometry relative="1" as="geometry" />
        </mxCell>
        <mxCell id="O7V4I7bS28s8WNEtMoP5-14" value="数据处理" style="rounded=1;whiteSpace=wrap;html=1;fontSize=15;" parent="1" vertex="1">
          <mxGeometry x="690" y="470" width="120" height="60" as="geometry" />
        </mxCell>
        <mxCell id="O7V4I7bS28s8WNEtMoP5-26" style="edgeStyle=orthogonalEdgeStyle;rounded=0;orthogonalLoop=1;jettySize=auto;html=1;exitX=0;exitY=0.5;exitDx=0;exitDy=0;entryX=1;entryY=0.5;entryDx=0;entryDy=0;dashed=1;fontSize=15;startArrow=classic;startFill=0;" parent="1" source="O7V4I7bS28s8WNEtMoP5-16" target="O7V4I7bS28s8WNEtMoP5-24" edge="1">
          <mxGeometry relative="1" as="geometry" />
        </mxCell>
        <mxCell id="O7V4I7bS28s8WNEtMoP5-16" value="数据处理" style="rounded=1;whiteSpace=wrap;html=1;fontSize=15;" parent="1" vertex="1">
          <mxGeometry x="245" y="250" width="120" height="60" as="geometry" />
        </mxCell>
        <mxCell id="O7V4I7bS28s8WNEtMoP5-27" style="rounded=0;orthogonalLoop=1;jettySize=auto;html=1;exitX=0;exitY=0.5;exitDx=0;exitDy=0;dashed=1;fontSize=15;entryX=0.5;entryY=1;entryDx=0;entryDy=0;" parent="1" source="O7V4I7bS28s8WNEtMoP5-20" target="O7V4I7bS28s8WNEtMoP5-24" edge="1">
          <mxGeometry relative="1" as="geometry" />
        </mxCell>
        <mxCell id="O7V4I7bS28s8WNEtMoP5-20" value="数据存储" style="rounded=1;whiteSpace=wrap;html=1;fontSize=15;" parent="1" vertex="1">
          <mxGeometry x="245" y="470" width="120" height="60" as="geometry" />
        </mxCell>
        <mxCell id="O7V4I7bS28s8WNEtMoP5-21" value="数据展示" style="rounded=1;whiteSpace=wrap;html=1;fontSize=15;" parent="1" vertex="1">
          <mxGeometry x="20" y="90" width="120" height="60" as="geometry" />
        </mxCell>
        <mxCell id="O7V4I7bS28s8WNEtMoP5-24" value="数据存储" style="rounded=1;whiteSpace=wrap;html=1;fontSize=15;" parent="1" vertex="1">
          <mxGeometry x="90" y="250" width="120" height="60" as="geometry" />
        </mxCell>
        <mxCell id="O7V4I7bS28s8WNEtMoP5-28" style="edgeStyle=none;rounded=0;orthogonalLoop=1;jettySize=auto;html=1;exitX=0;exitY=0.5;exitDx=0;exitDy=0;entryX=0.5;entryY=1;entryDx=0;entryDy=0;dashed=1;fontSize=15;shadow=0;startArrow=classic;startFill=0;" parent="1" source="O7V4I7bS28s8WNEtMoP5-14" target="O7V4I7bS28s8WNEtMoP5-24" edge="1">
          <mxGeometry relative="1" as="geometry" />
        </mxCell>
        <mxCell id="O7V4I7bS28s8WNEtMoP5-32" style="edgeStyle=orthogonalEdgeStyle;rounded=0;orthogonalLoop=1;jettySize=auto;html=1;exitX=0;exitY=0.5;exitDx=0;exitDy=0;entryX=1;entryY=0.5;entryDx=0;entryDy=0;shadow=0;dashed=1;fontSize=15;startArrow=none;startFill=0;fillColor=#f8cecc;strokeColor=#b85450;" parent="1" source="O7V4I7bS28s8WNEtMoP5-29" target="O7V4I7bS28s8WNEtMoP5-21" edge="1">
          <mxGeometry relative="1" as="geometry" />
        </mxCell>
        <mxCell id="O7V4I7bS28s8WNEtMoP5-29" value="数据存储" style="rounded=1;whiteSpace=wrap;html=1;fontSize=15;" parent="1" vertex="1">
          <mxGeometry x="565" y="90" width="120" height="60" as="geometry" />
        </mxCell>
      </root>
    </mxGraphModel>
  </diagram>
  <diagram id="GnjcKDPUgE_78mrbPABl" name="数仓架构">
    <mxGraphModel dx="1038" dy="539" grid="1" gridSize="10" guides="1" tooltips="1" connect="1" arrows="1" fold="1" page="1" pageScale="1" pageWidth="827" pageHeight="1169" math="0" shadow="0">
      <root>
        <mxCell id="0" />
        <mxCell id="1" parent="0" />
        <mxCell id="B-mUy7HGbxZSmTYjWdJe-4" value="ODS层（Operation Data Store）&lt;br&gt;&lt;br&gt;贴源数据层、原始数据层" style="rounded=1;whiteSpace=wrap;html=1;fontSize=15;" parent="1" vertex="1">
          <mxGeometry y="330" width="570" height="80" as="geometry" />
        </mxCell>
        <mxCell id="B-mUy7HGbxZSmTYjWdJe-7" value="DWM层（Data Warehouse Middle）数据中间层" style="rounded=1;whiteSpace=wrap;html=1;fontSize=15;" parent="1" vertex="1">
          <mxGeometry y="210" width="410" height="50" as="geometry" />
        </mxCell>
        <mxCell id="B-mUy7HGbxZSmTYjWdJe-8" value="DWD层（Data Warehouse Detial）数据明细层&lt;br&gt;" style="rounded=1;whiteSpace=wrap;html=1;fontSize=15;" parent="1" vertex="1">
          <mxGeometry y="270" width="410" height="47" as="geometry" />
        </mxCell>
        <mxCell id="B-mUy7HGbxZSmTYjWdJe-9" value="DIM层（Dimense）&lt;br&gt;&lt;br&gt;维度层" style="rounded=1;whiteSpace=wrap;html=1;fontSize=15;arcSize=9;" parent="1" vertex="1">
          <mxGeometry x="420" y="90" width="150" height="227" as="geometry" />
        </mxCell>
        <mxCell id="B-mUy7HGbxZSmTYjWdJe-11" value="ADS层（Application Data Store）&lt;br&gt;&lt;br&gt;数据指标层、数据应用层" style="rounded=1;whiteSpace=wrap;html=1;fontSize=15;" parent="1" vertex="1">
          <mxGeometry width="570" height="80" as="geometry" />
        </mxCell>
        <mxCell id="B-mUy7HGbxZSmTYjWdJe-18" value="" style="shape=flexArrow;endArrow=classic;html=1;rounded=0;fontSize=15;fillColor=#FFFFFF;" parent="1" edge="1">
          <mxGeometry width="50" height="50" relative="1" as="geometry">
            <mxPoint x="70" y="350" as="sourcePoint" />
            <mxPoint x="130" y="300" as="targetPoint" />
            <Array as="points">
              <mxPoint x="100" y="340" />
            </Array>
          </mxGeometry>
        </mxCell>
        <mxCell id="B-mUy7HGbxZSmTYjWdJe-20" value="" style="shape=flexArrow;endArrow=classic;html=1;rounded=0;fontSize=15;fillColor=#FFFFFF;" parent="1" edge="1">
          <mxGeometry width="50" height="50" relative="1" as="geometry">
            <mxPoint x="450" y="350" as="sourcePoint" />
            <mxPoint x="510" y="300" as="targetPoint" />
            <Array as="points">
              <mxPoint x="480" y="340" />
            </Array>
          </mxGeometry>
        </mxCell>
        <mxCell id="0PR1f-YxW83VjZo11fKE-1" value="DWS层（Data Warehouse Service ）数据服务处层" style="rounded=1;whiteSpace=wrap;html=1;fontSize=15;" vertex="1" parent="1">
          <mxGeometry y="150" width="410" height="50" as="geometry" />
        </mxCell>
        <mxCell id="0PR1f-YxW83VjZo11fKE-2" value="DWT层（Data Warehouse Topic ）数据主题层" style="rounded=1;whiteSpace=wrap;html=1;fontSize=15;" vertex="1" parent="1">
          <mxGeometry y="90" width="410" height="50" as="geometry" />
        </mxCell>
        <mxCell id="0PR1f-YxW83VjZo11fKE-3" value="" style="shape=flexArrow;endArrow=classic;html=1;rounded=0;fontSize=15;fillColor=#FFFFFF;" edge="1" parent="1">
          <mxGeometry width="50" height="50" relative="1" as="geometry">
            <mxPoint x="280" y="95" as="sourcePoint" />
            <mxPoint x="330" y="65" as="targetPoint" />
            <Array as="points">
              <mxPoint x="300" y="95" />
            </Array>
          </mxGeometry>
        </mxCell>
      </root>
    </mxGraphModel>
  </diagram>
  <diagram id="L9dQtKbbsRJyBy5NqD0Y" name="第 3 页">
    <mxGraphModel dx="1038" dy="1708" grid="1" gridSize="10" guides="1" tooltips="1" connect="1" arrows="1" fold="1" page="1" pageScale="1" pageWidth="827" pageHeight="1169" math="0" shadow="0">
      <root>
        <mxCell id="0" />
        <mxCell id="1" parent="0" />
        <mxCell id="0M29Z1dws9DwXlyAKN9n-3" value="" style="rounded=0;orthogonalLoop=1;jettySize=auto;html=1;fontSize=15;fillColor=#FFFFFF;" parent="1" source="0M29Z1dws9DwXlyAKN9n-1" target="0M29Z1dws9DwXlyAKN9n-2" edge="1">
          <mxGeometry relative="1" as="geometry" />
        </mxCell>
        <mxCell id="0M29Z1dws9DwXlyAKN9n-17" style="edgeStyle=none;rounded=0;orthogonalLoop=1;jettySize=auto;html=1;fontSize=15;fillColor=#FFFFFF;" parent="1" source="0M29Z1dws9DwXlyAKN9n-1" target="0M29Z1dws9DwXlyAKN9n-10" edge="1">
          <mxGeometry relative="1" as="geometry" />
        </mxCell>
        <mxCell id="0M29Z1dws9DwXlyAKN9n-24" style="edgeStyle=none;rounded=0;orthogonalLoop=1;jettySize=auto;html=1;fontSize=15;fillColor=#FFFFFF;" parent="1" source="0M29Z1dws9DwXlyAKN9n-1" target="0M29Z1dws9DwXlyAKN9n-18" edge="1">
          <mxGeometry relative="1" as="geometry" />
        </mxCell>
        <mxCell id="0M29Z1dws9DwXlyAKN9n-1" value="管理员" style="shape=umlActor;verticalLabelPosition=bottom;verticalAlign=top;html=1;outlineConnect=0;fontSize=15;" parent="1" vertex="1">
          <mxGeometry x="320" y="370" width="30" height="60" as="geometry" />
        </mxCell>
        <mxCell id="0M29Z1dws9DwXlyAKN9n-9" style="edgeStyle=none;rounded=0;orthogonalLoop=1;jettySize=auto;html=1;fontSize=15;fillColor=#FFFFFF;" parent="1" source="0M29Z1dws9DwXlyAKN9n-2" target="0M29Z1dws9DwXlyAKN9n-5" edge="1">
          <mxGeometry relative="1" as="geometry" />
        </mxCell>
        <mxCell id="0M29Z1dws9DwXlyAKN9n-33" style="edgeStyle=none;rounded=0;orthogonalLoop=1;jettySize=auto;html=1;fontSize=15;fillColor=#FFFFFF;" parent="1" source="0M29Z1dws9DwXlyAKN9n-2" target="0M29Z1dws9DwXlyAKN9n-29" edge="1">
          <mxGeometry relative="1" as="geometry" />
        </mxCell>
        <mxCell id="0M29Z1dws9DwXlyAKN9n-2" value="普通账户" style="shape=umlActor;verticalLabelPosition=bottom;verticalAlign=top;html=1;outlineConnect=0;fontSize=15;" parent="1" vertex="1">
          <mxGeometry x="640" y="500" width="30" height="60" as="geometry" />
        </mxCell>
        <mxCell id="0M29Z1dws9DwXlyAKN9n-5" value="用户" style="shape=umlActor;verticalLabelPosition=bottom;verticalAlign=top;html=1;outlineConnect=0;fontSize=15;" parent="1" vertex="1">
          <mxGeometry x="910" y="650" width="30" height="60" as="geometry" />
        </mxCell>
        <mxCell id="0M29Z1dws9DwXlyAKN9n-43" style="edgeStyle=none;rounded=0;orthogonalLoop=1;jettySize=auto;html=1;dashed=1;fontSize=15;fillColor=#FFFFFF;" parent="1" source="0M29Z1dws9DwXlyAKN9n-10" target="0M29Z1dws9DwXlyAKN9n-11" edge="1">
          <mxGeometry relative="1" as="geometry" />
        </mxCell>
        <mxCell id="0M29Z1dws9DwXlyAKN9n-44" style="edgeStyle=none;rounded=0;orthogonalLoop=1;jettySize=auto;html=1;dashed=1;fontSize=15;fillColor=#FFFFFF;" parent="1" source="0M29Z1dws9DwXlyAKN9n-10" target="0M29Z1dws9DwXlyAKN9n-12" edge="1">
          <mxGeometry relative="1" as="geometry" />
        </mxCell>
        <mxCell id="0M29Z1dws9DwXlyAKN9n-45" style="edgeStyle=none;rounded=0;orthogonalLoop=1;jettySize=auto;html=1;dashed=1;fontSize=15;fillColor=#FFFFFF;" parent="1" source="0M29Z1dws9DwXlyAKN9n-10" target="0M29Z1dws9DwXlyAKN9n-13" edge="1">
          <mxGeometry relative="1" as="geometry" />
        </mxCell>
        <mxCell id="0M29Z1dws9DwXlyAKN9n-10" value="账号操作" style="ellipse;whiteSpace=wrap;html=1;fontSize=15;" parent="1" vertex="1">
          <mxGeometry x="270" y="530" width="120" height="80" as="geometry" />
        </mxCell>
        <mxCell id="0M29Z1dws9DwXlyAKN9n-11" value="注册账号" style="ellipse;whiteSpace=wrap;html=1;fontSize=15;" parent="1" vertex="1">
          <mxGeometry x="140" y="620" width="120" height="80" as="geometry" />
        </mxCell>
        <mxCell id="0M29Z1dws9DwXlyAKN9n-12" value="删除账号" style="ellipse;whiteSpace=wrap;html=1;fontSize=15;" parent="1" vertex="1">
          <mxGeometry x="280" y="685" width="120" height="80" as="geometry" />
        </mxCell>
        <mxCell id="0M29Z1dws9DwXlyAKN9n-13" value="修改密码" style="ellipse;whiteSpace=wrap;html=1;fontSize=15;" parent="1" vertex="1">
          <mxGeometry x="400" y="610" width="120" height="80" as="geometry" />
        </mxCell>
        <mxCell id="0M29Z1dws9DwXlyAKN9n-26" style="edgeStyle=none;rounded=0;orthogonalLoop=1;jettySize=auto;html=1;entryX=0.5;entryY=1;entryDx=0;entryDy=0;fontSize=15;fillColor=#FFFFFF;dashed=1;" parent="1" source="0M29Z1dws9DwXlyAKN9n-18" target="0M29Z1dws9DwXlyAKN9n-21" edge="1">
          <mxGeometry relative="1" as="geometry" />
        </mxCell>
        <mxCell id="0M29Z1dws9DwXlyAKN9n-27" style="edgeStyle=none;rounded=0;orthogonalLoop=1;jettySize=auto;html=1;entryX=0;entryY=1;entryDx=0;entryDy=0;fontSize=15;fillColor=#FFFFFF;dashed=1;" parent="1" source="0M29Z1dws9DwXlyAKN9n-18" target="0M29Z1dws9DwXlyAKN9n-23" edge="1">
          <mxGeometry relative="1" as="geometry" />
        </mxCell>
        <mxCell id="0M29Z1dws9DwXlyAKN9n-28" style="edgeStyle=none;rounded=0;orthogonalLoop=1;jettySize=auto;html=1;entryX=0;entryY=0.5;entryDx=0;entryDy=0;fontSize=15;fillColor=#FFFFFF;dashed=1;" parent="1" source="0M29Z1dws9DwXlyAKN9n-18" target="0M29Z1dws9DwXlyAKN9n-20" edge="1">
          <mxGeometry relative="1" as="geometry" />
        </mxCell>
        <mxCell id="0M29Z1dws9DwXlyAKN9n-38" style="edgeStyle=none;rounded=0;orthogonalLoop=1;jettySize=auto;html=1;entryX=0.046;entryY=0.758;entryDx=0;entryDy=0;entryPerimeter=0;fontSize=15;fillColor=#FFFFFF;dashed=1;" parent="1" source="0M29Z1dws9DwXlyAKN9n-18" target="0M29Z1dws9DwXlyAKN9n-34" edge="1">
          <mxGeometry relative="1" as="geometry" />
        </mxCell>
        <mxCell id="0M29Z1dws9DwXlyAKN9n-39" style="edgeStyle=none;rounded=0;orthogonalLoop=1;jettySize=auto;html=1;entryX=0.038;entryY=0.708;entryDx=0;entryDy=0;entryPerimeter=0;fontSize=15;fillColor=#FFFFFF;dashed=1;" parent="1" source="0M29Z1dws9DwXlyAKN9n-18" target="0M29Z1dws9DwXlyAKN9n-35" edge="1">
          <mxGeometry relative="1" as="geometry" />
        </mxCell>
        <mxCell id="0M29Z1dws9DwXlyAKN9n-40" style="edgeStyle=none;rounded=0;orthogonalLoop=1;jettySize=auto;html=1;fontSize=15;fillColor=#FFFFFF;dashed=1;" parent="1" source="0M29Z1dws9DwXlyAKN9n-18" target="0M29Z1dws9DwXlyAKN9n-36" edge="1">
          <mxGeometry relative="1" as="geometry" />
        </mxCell>
        <mxCell id="0M29Z1dws9DwXlyAKN9n-18" value="查询" style="ellipse;whiteSpace=wrap;html=1;fontSize=15;" parent="1" vertex="1">
          <mxGeometry x="434" y="300" width="120" height="80" as="geometry" />
        </mxCell>
        <mxCell id="0M29Z1dws9DwXlyAKN9n-19" value="修改" style="ellipse;whiteSpace=wrap;html=1;fontSize=15;" parent="1" vertex="1">
          <mxGeometry x="130" y="360" width="120" height="80" as="geometry" />
        </mxCell>
        <mxCell id="0M29Z1dws9DwXlyAKN9n-20" value="商品信息" style="ellipse;whiteSpace=wrap;html=1;fontSize=15;" parent="1" vertex="1">
          <mxGeometry x="770" y="20" width="120" height="80" as="geometry" />
        </mxCell>
        <mxCell id="0M29Z1dws9DwXlyAKN9n-21" value="金额" style="ellipse;whiteSpace=wrap;html=1;fontSize=15;" parent="1" vertex="1">
          <mxGeometry x="610" y="-80" width="120" height="80" as="geometry" />
        </mxCell>
        <mxCell id="0M29Z1dws9DwXlyAKN9n-23" value="普通账户信息" style="ellipse;whiteSpace=wrap;html=1;fontSize=15;" parent="1" vertex="1">
          <mxGeometry x="730" y="-90" width="120" height="80" as="geometry" />
        </mxCell>
        <mxCell id="0M29Z1dws9DwXlyAKN9n-30" style="edgeStyle=none;rounded=0;orthogonalLoop=1;jettySize=auto;html=1;entryX=0.5;entryY=1;entryDx=0;entryDy=0;fontSize=15;fillColor=#FFFFFF;dashed=1;" parent="1" source="0M29Z1dws9DwXlyAKN9n-29" target="0M29Z1dws9DwXlyAKN9n-21" edge="1">
          <mxGeometry relative="1" as="geometry" />
        </mxCell>
        <mxCell id="0M29Z1dws9DwXlyAKN9n-31" style="edgeStyle=none;rounded=0;orthogonalLoop=1;jettySize=auto;html=1;entryX=0.5;entryY=1;entryDx=0;entryDy=0;fontSize=15;fillColor=#FFFFFF;dashed=1;" parent="1" source="0M29Z1dws9DwXlyAKN9n-29" target="0M29Z1dws9DwXlyAKN9n-23" edge="1">
          <mxGeometry relative="1" as="geometry" />
        </mxCell>
        <mxCell id="0M29Z1dws9DwXlyAKN9n-32" style="edgeStyle=none;rounded=0;orthogonalLoop=1;jettySize=auto;html=1;entryX=0.5;entryY=1;entryDx=0;entryDy=0;fontSize=15;fillColor=#FFFFFF;dashed=1;" parent="1" source="0M29Z1dws9DwXlyAKN9n-29" target="0M29Z1dws9DwXlyAKN9n-20" edge="1">
          <mxGeometry relative="1" as="geometry" />
        </mxCell>
        <mxCell id="0M29Z1dws9DwXlyAKN9n-42" style="edgeStyle=none;rounded=0;orthogonalLoop=1;jettySize=auto;html=1;dashed=1;fontSize=15;fillColor=#FFFFFF;" parent="1" source="0M29Z1dws9DwXlyAKN9n-29" target="0M29Z1dws9DwXlyAKN9n-36" edge="1">
          <mxGeometry relative="1" as="geometry" />
        </mxCell>
        <mxCell id="0M29Z1dws9DwXlyAKN9n-29" value="查询" style="ellipse;whiteSpace=wrap;html=1;fontSize=15;" parent="1" vertex="1">
          <mxGeometry x="710" y="370" width="120" height="80" as="geometry" />
        </mxCell>
        <mxCell id="0M29Z1dws9DwXlyAKN9n-34" value="" style="ellipse;whiteSpace=wrap;html=1;fontSize=15;" parent="1" vertex="1">
          <mxGeometry x="890" y="50" width="120" height="80" as="geometry" />
        </mxCell>
        <mxCell id="0M29Z1dws9DwXlyAKN9n-35" value="" style="ellipse;whiteSpace=wrap;html=1;fontSize=15;" parent="1" vertex="1">
          <mxGeometry x="827" y="150" width="120" height="80" as="geometry" />
        </mxCell>
        <mxCell id="0M29Z1dws9DwXlyAKN9n-36" value="" style="ellipse;whiteSpace=wrap;html=1;fontSize=15;" parent="1" vertex="1">
          <mxGeometry x="865" y="250" width="120" height="80" as="geometry" />
        </mxCell>
      </root>
    </mxGraphModel>
  </diagram>
  <diagram id="impoeKhm4XVM846AYQFj" name="第 4 页">
    <mxGraphModel dx="1038" dy="539" grid="1" gridSize="10" guides="1" tooltips="1" connect="1" arrows="1" fold="1" page="1" pageScale="1" pageWidth="827" pageHeight="1169" math="0" shadow="0">
      <root>
        <mxCell id="0" />
        <mxCell id="1" parent="0" />
        <mxCell id="dbicBFryk7kB_fwPLi9g-1" value="&lt;font style=&quot;font-size: 15px&quot;&gt;DataSource（半结构化数据日志、结构化数据 MySql）&lt;/font&gt;" style="rounded=0;whiteSpace=wrap;html=1;" vertex="1" parent="1">
          <mxGeometry y="430" width="524" height="60" as="geometry" />
        </mxCell>
        <mxCell id="dbicBFryk7kB_fwPLi9g-2" value="&lt;font style=&quot;font-size: 14px&quot;&gt;ODS（Hive）&lt;/font&gt;" style="rounded=0;whiteSpace=wrap;html=1;" vertex="1" parent="1">
          <mxGeometry x="260" y="300" width="220" height="60" as="geometry" />
        </mxCell>
        <mxCell id="dbicBFryk7kB_fwPLi9g-4" value="" style="html=1;shadow=0;dashed=1;align=center;verticalAlign=middle;shape=mxgraph.arrows2.arrow;dy=0.68;dx=27.4;direction=north;notch=0;" vertex="1" parent="1">
          <mxGeometry x="402" y="363" width="40" height="60" as="geometry" />
        </mxCell>
        <mxCell id="dbicBFryk7kB_fwPLi9g-6" value="&lt;b&gt;Sqoop&lt;/b&gt;" style="text;html=1;strokeColor=none;fillColor=none;align=center;verticalAlign=middle;whiteSpace=wrap;rounded=0;dashed=1;" vertex="1" parent="1">
          <mxGeometry x="391" y="390" width="60" height="30" as="geometry" />
        </mxCell>
        <mxCell id="dbicBFryk7kB_fwPLi9g-7" value="DW（Hive,Hbase）" style="rounded=0;whiteSpace=wrap;html=1;fontSize=15;" vertex="1" parent="1">
          <mxGeometry x="191" y="170" width="190" height="60" as="geometry" />
        </mxCell>
        <mxCell id="dbicBFryk7kB_fwPLi9g-11" value="" style="html=1;shadow=0;dashed=1;align=center;verticalAlign=middle;shape=mxgraph.arrows2.arrow;dy=0.68;dx=27.4;direction=north;notch=0;" vertex="1" parent="1">
          <mxGeometry x="271" y="230" width="40" height="60" as="geometry" />
        </mxCell>
        <mxCell id="dbicBFryk7kB_fwPLi9g-12" value="&lt;b&gt;Hive、kettle、JavaApp&lt;/b&gt;" style="text;html=1;strokeColor=none;fillColor=none;align=center;verticalAlign=middle;whiteSpace=wrap;rounded=0;dashed=1;" vertex="1" parent="1">
          <mxGeometry x="201" y="260" width="180" height="30" as="geometry" />
        </mxCell>
        <mxCell id="dbicBFryk7kB_fwPLi9g-13" value="ADS（MySql）" style="rounded=0;whiteSpace=wrap;html=1;fontSize=15;" vertex="1" parent="1">
          <mxGeometry x="90" y="10" width="231" height="60" as="geometry" />
        </mxCell>
        <mxCell id="dbicBFryk7kB_fwPLi9g-14" value="" style="html=1;shadow=0;dashed=1;align=center;verticalAlign=middle;shape=mxgraph.arrows2.arrow;dy=0.68;dx=27.4;direction=north;notch=0;" vertex="1" parent="1">
          <mxGeometry x="231" y="80" width="40" height="82" as="geometry" />
        </mxCell>
        <mxCell id="dbicBFryk7kB_fwPLi9g-15" value="&lt;b&gt;Hive、kettle&lt;/b&gt;" style="text;html=1;strokeColor=none;fillColor=none;align=center;verticalAlign=middle;whiteSpace=wrap;rounded=0;dashed=1;" vertex="1" parent="1">
          <mxGeometry x="216" y="129" width="80" height="30" as="geometry" />
        </mxCell>
        <mxCell id="dbicBFryk7kB_fwPLi9g-16" value="" style="html=1;shadow=0;dashed=1;align=center;verticalAlign=middle;shape=mxgraph.arrows2.arrow;dy=0.68;dx=27.4;direction=north;notch=0;" vertex="1" parent="1">
          <mxGeometry x="110" y="80" width="40" height="340" as="geometry" />
        </mxCell>
        <mxCell id="dbicBFryk7kB_fwPLi9g-17" value="&lt;b&gt;Kafka、JavaAPP&lt;/b&gt;" style="text;html=1;strokeColor=none;fillColor=none;align=center;verticalAlign=middle;whiteSpace=wrap;rounded=0;dashed=1;" vertex="1" parent="1">
          <mxGeometry x="20" y="230" width="100" height="30" as="geometry" />
        </mxCell>
      </root>
    </mxGraphModel>
  </diagram>
</mxfile>
